<!DOCTYPE svg PUBLIC "-//W3C//DTD SVG 1.1//EN" "http://www.w3.org/Graphics/SVG/1.1/DTD/svg11.dtd">
<!-- Uploaded to: SVG Repo, www.svgrepo.com, Transformed by: SVG Repo Mixer Tools -->
<svg height="800px" width="800px" version="1.1" id="_x32_" xmlns="http://www.w3.org/2000/svg" xmlns:xlink="http://www.w3.org/1999/xlink" viewBox="0 0 512 512" xml:space="preserve" fill="#ffffff" stroke="#ffffff">
<g id="SVGRepo_bgCarrier" stroke-width="0"/>
<g id="SVGRepo_tracerCarrier" stroke-linecap="round" stroke-linejoin="round"/>
<g id="SVGRepo_iconCarrier"> <style type="text/css"> .st0{fill:#ffffff;} </style> <g> <path class="st0" d="M500.398,187.926c-8.993-10.404-22.084-16.393-35.892-16.393c-4.755,0-9.47,0.706-14.007,2.108l-49.759,14.364 l-0.478,0.129l-0.478,0.15l-2.467,0.398c-1.234,0-2.466-0.289-3.562-0.836l-24.452-11.978l28.034-37.105 c11.978-13.888,13.907-34.152,4.517-50.118c-7.76-13.13-22.005-21.248-37.206-21.248c-3.76,0-7.481,0.478-11.101,1.442 l-2.269,0.607l-2.148,0.935L247.681,114.87l-1.512,0.656l-75.923-37.205c-32.072-15.778-68.898-25.208-98.464-25.208 c-43.75,0-60.443,20.632-66.491,32.927c-18.106,36.856,10.306,74.012,84.437,110.431l75.366,37.116l42.636,189.03 c4.338,20.811,23.358,36.27,45.124,36.27l2.269-0.059c22.363-1.125,40.388-17.708,43.452-39.692l20.791-109.626l25.546,12.584 l0.338,0.169l0.359,0.16c21.148,9.768,43.054,14.921,63.368,14.921c33.067,0,58.891-13.946,70.849-38.279l0.159-0.338l0.159-0.338 l27.178-58.862C515.498,222.466,512.812,202.271,500.398,187.926z M479.686,226.464l-27.278,59.12 c-7.062,14.355-23.436,21.2-43.432,21.2c-15.559,0-33.306-4.138-50.556-12.107l-49.779-24.511l2.328-11.689l-11.46-7.64 l-2.686,13.51l-3.681,18.324l0.18,0.119l-24.93,131.562c-0.835,7.669-7.083,13.568-14.762,13.956l-0.776,0.02 c-7.401,0-13.788-5.173-15.32-12.435l-45.84-203.274l-88.496-43.572c-25.546-12.554-83.025-43.96-70.471-69.516 c5.154-10.504,18.822-15.34,36.459-15.777c-15.966,34.23,24.661,50.585,24.661,50.585l10.187-20.373 c-13.589-5.093-15.28-16.971-13.589-22.064c0,0,1.125-2.776,3.014-6.397c20.444,3.154,43.044,10.276,63.338,20.254l88.656,43.453 l38.538,18.234l13.589-6.795l-37.622-17.797l101.449-44.477c1.074-0.278,2.148-0.418,3.223-0.418c4.396,0,8.575,2.288,10.882,6.198 c2.885,4.884,2.129,11.092-1.791,15.151l-51.151,67.705l57.678,28.252c5.352,2.636,11.201,3.98,17.07,3.98 c3.999,0,7.998-0.628,11.878-1.88l50.117-14.455c1.71-0.556,3.462-0.815,5.192-0.815c4.836,0,9.53,2.069,12.793,5.849 C481.755,213.075,482.69,220.377,479.686,226.464z"/> <path class="st0" d="M133.738,134.337c-7.022,0-12.733,5.7-12.733,12.733c0,7.033,5.711,12.734,12.733,12.734 c7.043,0,12.734-5.701,12.734-12.734C146.471,140.038,140.781,134.337,133.738,134.337z"/> <path class="st0" d="M182.98,157.257c-7.043,0-12.733,5.7-12.733,12.733c0,7.033,5.69,12.733,12.733,12.733 c7.024,0,12.733-5.7,12.733-12.733C195.713,162.958,190.004,157.257,182.98,157.257z"/> <path class="st0" d="M232.203,180.177c-7.024,0-12.733,5.7-12.733,12.733s5.71,12.733,12.733,12.733 c7.043,0,12.733-5.7,12.733-12.733S239.246,180.177,232.203,180.177z"/> <path class="st0" d="M281.444,203.097c-7.043,0-12.733,5.7-12.733,12.733c0,7.033,5.69,12.733,12.733,12.733 c7.024,0,12.733-5.7,12.733-12.733C294.177,208.798,288.468,203.097,281.444,203.097z"/> </g> </g>
</svg>