<!DOCTYPE svg PUBLIC "-//W3C//DTD SVG 1.1//EN" "http://www.w3.org/Graphics/SVG/1.1/DTD/svg11.dtd">
<!-- Uploaded to: SVG Repo, www.svgrepo.com, Transformed by: SVG Repo Mixer Tools -->
<svg fill="#ffffff" version="1.1" id="Capa_1" xmlns="http://www.w3.org/2000/svg" xmlns:xlink="http://www.w3.org/1999/xlink" width="800px" height="800px" viewBox="0 0 31.191 31.191" xml:space="preserve" stroke="#ffffff">
<g id="SVGRepo_bgCarrier" stroke-width="0"/>
<g id="SVGRepo_tracerCarrier" stroke-linecap="round" stroke-linejoin="round"/>
<g id="SVGRepo_iconCarrier"> <g> <g> <path d="M21.452,13.136c0.983,0.204,2.028,0.182,3.062-0.119c3.357-0.98,5.663-3.562,4.709-6.92 c0.004-0.098,0.004-0.19,0.004-0.275c-0.002-0.158,1.129-2.212,1.129-2.212l-2.039,0.043c-0.914-1.354-2.629-2.028-4.282-1.546 c-1.894,0.553-3.04,2.43-2.728,4.33v0.002c-0.937,0.132-2.188-1.026-3.767-3.224c-1.258,2.852-0.399,5.354,0.458,6.137 c-1.188,0.493-3.757,0.464-4.95,0.204C16.016,13.043,18.781,13.331,21.452,13.136z M26.037,3.575 c0.562-0.165,1.15,0.158,1.314,0.72c0.164,0.562-0.16,1.151-0.721,1.315c-0.562,0.165-1.15-0.159-1.314-0.721 C25.15,4.326,25.475,3.738,26.037,3.575z"/> <path d="M26.552,5.08c0.281-0.083,0.442-0.376,0.361-0.657c-0.083-0.281-0.377-0.442-0.658-0.36l0,0 c0.034,0.034,0.062,0.073,0.075,0.121c0.045,0.156-0.044,0.318-0.2,0.365c-0.089,0.025-0.18,0.003-0.25-0.048 c-0.01,0.071-0.006,0.146,0.017,0.22C25.977,5,26.271,5.162,26.552,5.08z"/> <path d="M16.174,17.414c0.003-0.097,0.004-0.189,0.003-0.274c-0.001-0.158,1.13-2.212,1.13-2.212l-2.039,0.043 c-0.915-1.354-2.63-2.028-4.283-1.546c-1.894,0.553-3.04,2.43-2.728,4.329v0.003c-0.936,0.132-2.187-1.026-3.766-3.225 c-1.258,2.853-0.4,5.355,0.458,6.137C3.762,21.163,1.193,21.134,0,20.873c2.966,3.488,5.732,3.776,8.403,3.58 c0.984,0.204,2.029,0.183,3.062-0.119C14.822,23.354,17.128,20.773,16.174,17.414z M13.582,16.928 c-0.563,0.165-1.151-0.159-1.315-0.722c-0.165-0.562,0.158-1.15,0.721-1.313c0.562-0.165,1.15,0.158,1.314,0.72 C14.466,16.175,14.143,16.764,13.582,16.928z"/> <path d="M13.206,15.38L13.206,15.38c0.033,0.033,0.061,0.072,0.075,0.12c0.045,0.156-0.044,0.319-0.2,0.365 c-0.089,0.026-0.18,0.003-0.25-0.047c-0.01,0.071-0.006,0.146,0.016,0.219c0.082,0.281,0.376,0.442,0.657,0.36 c0.281-0.083,0.442-0.376,0.361-0.658C13.781,15.459,13.486,15.298,13.206,15.38z"/> <path d="M30.062,21.792c-0.002-0.157,1.129-2.212,1.129-2.212l-2.037,0.043c-0.916-1.354-2.631-2.027-4.283-1.546 c-1.895,0.554-3.04,2.431-2.729,4.33v0.002c-0.936,0.132-2.187-1.025-3.766-3.224c-1.258,2.852-0.4,5.354,0.458,6.137 c-1.188,0.493-3.757,0.464-4.95,0.204c2.967,3.488,5.732,3.776,8.403,3.58c0.983,0.204,2.028,0.182,3.062-0.119 c3.357-0.979,5.662-3.561,4.709-6.92C30.062,21.97,30.062,21.876,30.062,21.792z M27.466,21.58 c-0.563,0.165-1.151-0.159-1.315-0.721s0.158-1.151,0.722-1.314c0.562-0.164,1.149,0.158,1.313,0.721 C28.35,20.827,28.027,21.417,27.466,21.58z"/> <path d="M27.09,20.033L27.09,20.033c0.033,0.034,0.061,0.073,0.075,0.121c0.045,0.156-0.044,0.319-0.2,0.365 c-0.089,0.025-0.18,0.003-0.25-0.047c-0.01,0.07-0.006,0.146,0.016,0.219c0.082,0.281,0.377,0.442,0.658,0.36 c0.28-0.083,0.441-0.376,0.36-0.658C27.665,20.113,27.371,19.951,27.09,20.033z"/> </g> </g> </g>
</svg>