<!DOCTYPE svg PUBLIC "-//W3C//DTD SVG 1.1//EN" "http://www.w3.org/Graphics/SVG/1.1/DTD/svg11.dtd">
<!-- Uploaded to: SVG Repo, www.svgrepo.com, Transformed by: SVG Repo Mixer Tools -->
<svg height="800px" width="800px" version="1.1" id="_x32_" xmlns="http://www.w3.org/2000/svg" xmlns:xlink="http://www.w3.org/1999/xlink" viewBox="0 0 512 512" xml:space="preserve" fill="#ffffff" stroke="#ffffff">
<g id="SVGRepo_bgCarrier" stroke-width="0"/>
<g id="SVGRepo_tracerCarrier" stroke-linecap="round" stroke-linejoin="round"/>
<g id="SVGRepo_iconCarrier"> <style type="text/css"> .st0{fill:#ffffff;} </style> <g> <path class="st0" d="M422.804,332.819c-34.87-7.132-11.07-25.884,15.846-33.085c26.899-7.201,16.591-45.641-11.708-35.981 c-28.308,9.634-56.711,41.967-71.333,33.514c-11.69-6.746-31.178-17.982-38.502-22.217c1.881-6.02,2.888-12.425,2.888-19.049 c0-6.624-1.006-13.029-2.888-19.041c7.324-4.226,26.811-15.48,38.502-22.226c14.622-8.435,43.025,23.888,71.333,33.531 c28.298,9.643,38.606-28.798,11.708-35.999c-26.916-7.202-50.717-25.936-15.846-33.086c34.861-7.114,66.187-31.65,54.899-51.18 c-11.288-19.531-48.17-4.673-71.797,21.955c-23.582,26.618-27.913-3.369-20.712-30.267c7.202-26.908-31.212-37.189-37.014-7.858 c-5.819,29.332,7.98,70.116-6.633,78.543c-11.717,6.764-31.212,18.018-38.528,22.244c-8.637-9.38-20.056-16.145-32.954-19.05 c0-8.435,0-30.959,0-44.469c0-16.871,42.186-25.315,64.709-45.004c22.497-19.688-5.626-47.828-25.332-28.141 c-19.697,19.706-47.812,30.95-36.559-2.817C284.128,39.385,278.554,0,255.987,0c-22.55,0-28.132,39.385-16.88,73.135 c11.253,33.767-16.862,22.523-36.55,2.817c-19.706-19.688-47.83,8.453-25.332,28.141c22.515,19.689,64.708,28.133,64.708,45.004 c0,13.51,0,36.034,0,44.469c-12.898,2.905-24.326,9.669-32.954,19.05c-7.315-4.226-26.811-15.48-38.528-22.244 c-14.613-8.426-0.84-49.211-6.632-78.543c-5.802-29.331-44.225-19.05-37.014,7.858c7.193,26.898,2.896,56.886-20.712,30.267 C82.468,123.327,45.585,108.469,34.297,128c-11.288,19.531,20.038,44.067,54.899,51.18c34.853,7.15,11.052,25.884-15.855,33.086 c-26.881,7.201-16.591,45.642,11.708,35.999c28.308-9.643,56.72-41.966,71.333-33.531c11.7,6.746,31.186,18,38.493,22.226 c-1.873,6.012-2.87,12.416-2.87,19.041c0,6.624,0.997,13.029,2.87,19.049c-7.306,4.236-26.793,15.471-38.493,22.217 c-14.613,8.453-43.026-23.879-71.333-33.514c-28.299-9.66-38.589,28.78-11.708,35.981c26.907,7.202,50.725,25.954,15.855,33.085 c-34.861,7.115-66.188,31.65-54.899,51.181c11.288,19.54,48.171,4.673,71.797-21.955c23.608-26.618,27.904,3.369,20.712,30.268 c-7.21,26.907,31.213,37.188,37.014,7.858c5.792-29.323-7.981-70.091,6.632-78.543c11.717-6.764,31.213-18.018,38.528-22.235 c8.628,9.38,20.056,16.136,32.954,19.041c0,8.435,0,30.959,0,44.469c0,16.87-42.194,25.315-64.708,45.003 c-22.498,19.689,5.626,47.83,25.332,28.141c19.688-19.706,47.803-30.95,36.55,2.818c-11.253,33.758-5.67,73.135,16.88,73.135 c22.567,0,28.141-39.377,16.897-73.135c-11.253-33.768,16.862-22.524,36.559-2.818c19.706,19.688,47.829-8.452,25.332-28.141 c-22.523-19.688-64.709-28.133-64.709-45.003c0-13.51,0-36.034,0-44.469c12.898-2.905,24.317-9.66,32.954-19.041 c7.315,4.218,26.811,15.471,38.528,22.235c14.613,8.452,0.814,49.22,6.633,78.543c5.802,29.331,44.215,19.05,37.014-7.858 c-7.201-26.899-2.896-56.886,20.712-30.268c23.627,26.628,60.509,41.494,71.797,21.955 C488.991,364.469,457.665,339.934,422.804,332.819z M255.987,292.27c-20.012,0-36.253-16.232-36.253-36.27 c0-20.03,16.241-36.262,36.253-36.262c20.038,0,36.27,16.232,36.27,36.262C292.257,276.038,276.025,292.27,255.987,292.27z"/> </g> </g>
</svg>