<!DOCTYPE svg PUBLIC "-//W3C//DTD SVG 1.1//EN" "http://www.w3.org/Graphics/SVG/1.1/DTD/svg11.dtd">
<!-- Uploaded to: SVG Repo, www.svgrepo.com, Transformed by: SVG Repo Mixer Tools -->
<svg version="1.1" id="Uploaded to svgrepo.com" xmlns="http://www.w3.org/2000/svg" xmlns:xlink="http://www.w3.org/1999/xlink" width="800px" height="800px" viewBox="0 0 32 32" xml:space="preserve" fill="#ffffff" stroke="#ffffff">
<g id="SVGRepo_bgCarrier" stroke-width="0"/>
<g id="SVGRepo_tracerCarrier" stroke-linecap="round" stroke-linejoin="round"/>
<g id="SVGRepo_iconCarrier"> <style type="text/css"> .open_een{fill:#ffffff;} </style> <g> <g> <path class="open_een" d="M22.469,7.085C21.05,4.556,18.414,3,15.5,3c-4.074,0-7.456,3.048-7.933,7.037 C7.373,10.012,7.185,10,7,10c-2.757,0-5,2.243-5,5s2.243,5,5,5h1.5C8.776,20,9,19.776,9,19.5S8.776,19,8.5,19H7 c-2.206,0-4-1.794-4-4s1.794-4,4-4c0.282,0,0.578,0.037,0.906,0.113c0.145,0.035,0.296,0.001,0.414-0.088 c0.118-0.09,0.191-0.227,0.198-0.375C8.703,6.921,11.769,4,15.5,4c2.66,0,5.056,1.482,6.254,3.869 c0.102,0.203,0.328,0.311,0.554,0.264C25.851,7.356,29,10.079,29,13.5c0,3.032-2.467,5.5-5.5,5.5h-6.929l0.924-6.934 c0.032-0.239-0.111-0.466-0.339-0.541c-0.229-0.079-0.479,0.022-0.594,0.233l-5.5,10c-0.085,0.155-0.083,0.344,0.008,0.496 c0.09,0.151,0.253,0.245,0.43,0.245h1.965l-0.464,6.967c-0.015,0.23,0.129,0.441,0.35,0.511C13.4,29.992,13.45,30,13.5,30 c0.172,0,0.336-0.089,0.429-0.243l4.5-7.5c0.142-0.236,0.065-0.544-0.171-0.686c-0.238-0.144-0.544-0.064-0.686,0.172 l-3.435,5.724l0.362-5.434c0.009-0.138-0.04-0.273-0.134-0.375C14.271,21.558,14.138,21.5,14,21.5h-1.654l3.806-6.92l-0.647,4.854 c-0.037,0.274,0.156,0.525,0.43,0.562c0.023,0.003,0.044-0.004,0.066-0.004V20h7.5c3.584,0,6.5-2.916,6.5-6.5 C30,9.578,26.496,6.43,22.469,7.085z"/> </g> <g> <path class="open_een" d="M22.469,7.085C21.05,4.556,18.414,3,15.5,3c-4.074,0-7.456,3.048-7.933,7.037 C7.373,10.012,7.185,10,7,10c-2.757,0-5,2.243-5,5s2.243,5,5,5h1.5C8.776,20,9,19.776,9,19.5S8.776,19,8.5,19H7 c-2.206,0-4-1.794-4-4s1.794-4,4-4c0.282,0,0.578,0.037,0.906,0.113c0.145,0.035,0.296,0.001,0.414-0.088 c0.118-0.09,0.191-0.227,0.198-0.375C8.703,6.921,11.769,4,15.5,4c2.66,0,5.056,1.482,6.254,3.869 c0.102,0.203,0.328,0.311,0.554,0.264C25.851,7.356,29,10.079,29,13.5c0,3.032-2.467,5.5-5.5,5.5h-6.929l0.924-6.934 c0.032-0.239-0.111-0.466-0.339-0.541c-0.229-0.079-0.479,0.022-0.594,0.233l-5.5,10c-0.085,0.155-0.083,0.344,0.008,0.496 c0.09,0.151,0.253,0.245,0.43,0.245h1.965l-0.464,6.967c-0.015,0.23,0.129,0.441,0.35,0.511C13.4,29.992,13.45,30,13.5,30 c0.172,0,0.336-0.089,0.429-0.243l4.5-7.5c0.142-0.236,0.065-0.544-0.171-0.686c-0.238-0.144-0.544-0.064-0.686,0.172 l-3.435,5.724l0.362-5.434c0.009-0.138-0.04-0.273-0.134-0.375C14.271,21.558,14.138,21.5,14,21.5h-1.654l3.806-6.92l-0.647,4.854 c-0.037,0.274,0.156,0.525,0.43,0.562c0.023,0.003,0.044-0.004,0.066-0.004V20h7.5c3.584,0,6.5-2.916,6.5-6.5 C30,9.578,26.496,6.43,22.469,7.085z"/> </g> </g> </g>
</svg>