<!DOCTYPE svg PUBLIC "-//W3C//DTD SVG 1.1//EN" "http://www.w3.org/Graphics/SVG/1.1/DTD/svg11.dtd">
<!-- Uploaded to: SVG Repo, www.svgrepo.com, Transformed by: SVG Repo Mixer Tools -->
<svg fill="#ffffff" width="800px" height="800px" viewBox="0 0 1024 1024" xmlns="http://www.w3.org/2000/svg" stroke="#ffffff">
<g id="SVGRepo_bgCarrier" stroke-width="0"/>
<g id="SVGRepo_tracerCarrier" stroke-linecap="round" stroke-linejoin="round"/>
<g id="SVGRepo_iconCarrier">
<path d="M743.98 634.88c16.962 0 30.72-13.758 30.72-30.72V102.4c0-16.962-13.758-30.72-30.72-30.72h-460.8c-16.962 0-30.72 13.758-30.72 30.72v501.76c0 16.962 13.758 30.72 30.72 30.72h460.8zm0 40.96h-460.8c-39.583 0-71.68-32.097-71.68-71.68V102.4c0-39.583 32.097-71.68 71.68-71.68h460.8c39.583 0 71.68 32.097 71.68 71.68v501.76c0 39.583-32.097 71.68-71.68 71.68z"/>
<path d="M682.195 378.88c5.657 0 10.24-4.583 10.24-10.24v-204.8c0-5.657-4.583-10.24-10.24-10.24h-337.92a10.238 10.238 0 00-10.24 10.24v204.8c0 5.657 4.583 10.24 10.24 10.24h337.92zm0 40.96h-337.92c-28.278 0-51.2-22.922-51.2-51.2v-204.8c0-28.278 22.922-51.2 51.2-51.2h337.92c28.278 0 51.2 22.922 51.2 51.2v204.8c0 28.278-22.922 51.2-51.2 51.2zM246.867 860.131H778.21v-40.96H246.867zm-77.918 81.92h679.946c11.311 0 20.48-9.169 20.48-20.48s-9.169-20.48-20.48-20.48H168.949c-11.311 0-20.48 9.169-20.48 20.48s9.169 20.48 20.48 20.48zm112.846-272.879v56.76c0 11.311 9.169 20.48 20.48 20.48s20.48-9.169 20.48-20.48v-56.76c0-11.311-9.169-20.48-20.48-20.48s-20.48 9.169-20.48 20.48zm421.888 0v56.76c0 11.311 9.169 20.48 20.48 20.48s20.48-9.169 20.48-20.48v-56.76c0-11.311-9.169-20.48-20.48-20.48s-20.48 9.169-20.48 20.48zm30.399-140.619c0 29.686-24.064 53.76-53.76 53.76-29.686 0-53.76-24.074-53.76-53.76 0-29.696 24.074-53.76 53.76-53.76 29.696 0 53.76 24.064 53.76 53.76zm-332.479 0c0 29.686-24.074 53.76-53.76 53.76-29.696 0-53.76-24.074-53.76-53.76 0-29.696 24.064-53.76 53.76-53.76 29.686 0 53.76 24.064 53.76 53.76zm56.77 20.48h108.431c11.311 0 20.48-9.169 20.48-20.48s-9.169-20.48-20.48-20.48H458.373c-11.311 0-20.48 9.169-20.48 20.48s9.169 20.48 20.48 20.48z"/>
<path d="M284.164 772.566l-175.77 175.77c-7.998 7.998-7.998 20.965 0 28.963s20.965 7.998 28.963 0l175.77-175.77c7.998-7.998 7.998-20.965 0-28.963s-20.965-7.998-28.963 0zm425.517 28.963l175.77 175.77c7.998 7.998 20.965 7.998 28.963 0s7.998-20.965 0-28.963l-175.77-175.77c-7.998-7.998-20.965-7.998-28.963 0s-7.998 20.965 0 28.963z"/>
</g>
</svg>